<?xml version="1.0" encoding="UTF-8"?> <svg xmlns="http://www.w3.org/2000/svg" xmlns:xlink="http://www.w3.org/1999/xlink" version="1.1" id="Layer_1" x="0px" y="0px" viewBox="0 0 388.764 128.506" style="enable-background:new 0 0 388.764 128.506;" xml:space="preserve"> <circle style="fill:#FFFFFF;" cx="-348.337" cy="44.982" r="36.994"></circle> <g> <circle style="fill:#FFFFFF;" cx="49.784" cy="45.322" r="36.994"></circle> <g> <g> <path style="fill:#FFFFFF;" d="M154.738,76.354h-8.332l-5.267-15.322h-27.1l-5.17,15.322h-8.332l21.544-63.78h11.111 L154.738,76.354z M127.638,18.513l-11.396,35.338h22.792L127.638,18.513z"></path> <path style="fill:#FFFFFF;" d="M200.842,77.314c-6.129,0-13.501-1.15-18.96-3.353l1.341-6.702 c5.84,1.817,11.969,2.776,17.809,2.776c10.246,0,12.355-2.682,12.355-9.961c0-8.616-0.097-9.384-13.217-12.351 c-15.416-3.446-17.236-6.417-17.236-19.634c0-11.108,4.597-16.468,20.398-16.468c5.552,0,12.16,0.764,17.236,2.105l-0.671,6.99 c-5.076-1.15-11.108-1.821-16.375-1.821c-10.437,0-12.355,2.109-12.355,9.482c0,8.811,0,9.193,12.644,12.355 c16.948,4.215,17.809,6.702,17.809,19.151C221.623,70.99,218.367,77.314,200.842,77.314z"></path> <path style="fill:#FFFFFF;" d="M306.269,76.354h-8.332l-5.267-15.322h-27.1l-5.17,15.322h-8.332l21.544-63.78h11.111 L306.269,76.354z M279.169,18.513l-11.396,35.338h22.792L279.169,18.513z"></path> <path style="fill:#FFFFFF;" d="M355.491,77.314c-6.129,0-13.501-1.15-18.96-3.353l1.341-6.702 c5.84,1.817,11.969,2.776,17.809,2.776c10.246,0,12.355-2.682,12.355-9.961c0-8.616-0.097-9.384-13.217-12.351 c-15.416-3.446-17.236-6.417-17.236-19.634c0-11.108,4.597-16.468,20.398-16.468c5.552,0,12.16,0.764,17.236,2.105l-0.671,6.99 c-5.076-1.15-11.108-1.821-16.375-1.821c-10.437,0-12.355,2.109-12.355,9.482c0,8.811,0,9.193,12.644,12.355 c16.948,4.215,17.809,6.702,17.809,19.151C376.271,70.99,373.016,77.314,355.491,77.314z"></path> </g> <path style="fill:#B7273F;" d="M52.303,56.704c0,0,9.454,8.149,28.621,8.635c0.83-1.294,1.57-2.646,2.237-4.043 c-13.758-1.259-38.586-6.041-42.314-24.117c0,0,7.243,12.248,45.253,15.308c0.232-1.187,0.41-2.393,0.526-3.618 c-10.663-2.487-48.065-12.254-48.622-27.045c0,0,7.56,12.826,47.915,15.511C82.259,20.66,67.422,8.174,49.649,8.174 c-20.521,0-37.156,16.635-37.156,37.156c0,20.521,16.635,37.156,37.156,37.156c8.811,0,16.894-3.082,23.263-8.207 C62.685,69.852,53.564,63.952,52.303,56.704z"></path> </g> <g> <path style="fill:#FFFFFF;" d="M22.581,100.186c0.208-0.037,0.426-0.058,0.652-0.062c0.227-0.004,0.396-0.006,0.508-0.006 c0.126,0,0.29,0.002,0.491,0.006s0.402,0.024,0.603,0.062l2.566,7.831c0.059,0.193,0.137,0.451,0.234,0.775 c0.096,0.323,0.193,0.66,0.29,1.01c0.096,0.35,0.18,0.662,0.251,0.937c0.07,0.275,0.113,0.454,0.128,0.535h0.112 c0.015-0.081,0.058-0.26,0.128-0.535c0.07-0.274,0.154-0.587,0.251-0.937c0.096-0.35,0.193-0.687,0.29-1.01 c0.096-0.324,0.178-0.582,0.245-0.775l2.566-7.831c0.23-0.037,0.439-0.058,0.625-0.062c0.186-0.004,0.342-0.006,0.469-0.006 c0.111,0,0.275,0.002,0.491,0.006s0.439,0.024,0.669,0.062l1.183,15.216c-0.119,0.037-0.261,0.065-0.424,0.084 c-0.164,0.019-0.316,0.027-0.458,0.027c-0.142,0-0.273-0.005-0.396-0.017c-0.123-0.011-0.251-0.027-0.385-0.05l-0.625-9.237 c-0.022-0.342-0.044-0.762-0.067-1.261c-0.022-0.498-0.043-1.009-0.062-1.533s-0.035-0.995-0.05-1.411h-0.112l-3.547,11.044 c-0.126,0.022-0.266,0.039-0.418,0.05c-0.152,0.012-0.299,0.017-0.44,0.017c-0.149,0-0.296-0.005-0.441-0.017 c-0.145-0.011-0.277-0.027-0.396-0.05l-3.536-11.044h-0.112c-0.022,0.416-0.043,0.887-0.061,1.411 c-0.019,0.524-0.038,1.035-0.056,1.533c-0.019,0.499-0.039,0.919-0.061,1.261l-0.636,9.237c-0.126,0.022-0.258,0.039-0.396,0.05 c-0.138,0.012-0.277,0.017-0.418,0.017c-0.149,0-0.3-0.009-0.452-0.027s-0.281-0.047-0.385-0.084L22.581,100.186z"></path> <path style="fill:#FFFFFF;" d="M40.397,106.59c0-0.357-0.017-0.699-0.05-1.026c-0.034-0.327-0.103-0.614-0.207-0.859 c0.119-0.111,0.275-0.199,0.469-0.262c0.193-0.063,0.383-0.095,0.569-0.095c0.312,0,0.536,0.089,0.669,0.268 c0.134,0.178,0.201,0.45,0.201,0.814v6.191c0,0.877,0.112,1.515,0.334,1.913c0.223,0.397,0.655,0.597,1.294,0.597 c0.454,0,0.933-0.106,1.439-0.318s0.976-0.494,1.411-0.848c0.435-0.353,0.775-0.745,1.021-1.177v1.74 c-0.484,0.61-1.114,1.112-1.891,1.506c-0.777,0.395-1.575,0.592-2.393,0.592c-0.699,0-1.259-0.158-1.679-0.475 c-0.42-0.315-0.724-0.738-0.909-1.266c-0.186-0.528-0.279-1.112-0.279-1.752V106.59z M48.752,112.335 c0,0.476,0.035,0.928,0.106,1.355s0.244,0.771,0.519,1.031c-0.06,0.156-0.158,0.318-0.295,0.485 c-0.138,0.168-0.292,0.292-0.463,0.374c-0.595-0.208-0.997-0.563-1.205-1.065c-0.208-0.502-0.312-1.051-0.312-1.646v-8.389 c0.111-0.022,0.236-0.039,0.374-0.051c0.138-0.011,0.285-0.017,0.441-0.017c0.163,0,0.316,0.006,0.457,0.017 c0.141,0.012,0.268,0.028,0.379,0.051V112.335z"></path> <path style="fill:#FFFFFF;" d="M55.747,115.424c-0.112,0.022-0.236,0.039-0.374,0.05c-0.138,0.012-0.285,0.018-0.441,0.018 c-0.164,0-0.316-0.006-0.458-0.018c-0.141-0.011-0.264-0.027-0.368-0.05v-8.612c0-0.409-0.067-0.691-0.201-0.848 s-0.375-0.234-0.725-0.234h-0.212c-0.044-0.208-0.067-0.413-0.067-0.613c0-0.104,0.005-0.203,0.017-0.296s0.028-0.199,0.05-0.318 c0.253-0.037,0.474-0.061,0.664-0.072c0.19-0.011,0.344-0.017,0.463-0.017h0.189c0.461,0,0.82,0.142,1.077,0.424 c0.256,0.283,0.385,0.674,0.385,1.172V115.424z M53.404,101.591c0-0.335,0.056-0.613,0.167-0.837 c0.104-0.066,0.252-0.12,0.446-0.161c0.193-0.041,0.375-0.062,0.546-0.062c0.156,0,0.338,0.021,0.547,0.062 c0.208,0.041,0.357,0.095,0.446,0.161c0.052,0.097,0.093,0.226,0.123,0.385c0.03,0.16,0.044,0.311,0.044,0.452 c0,0.335-0.056,0.609-0.167,0.825c-0.082,0.067-0.229,0.123-0.441,0.168c-0.212,0.044-0.396,0.066-0.552,0.066 c-0.171,0-0.353-0.022-0.546-0.066c-0.194-0.045-0.342-0.101-0.446-0.168C53.46,102.201,53.404,101.926,53.404,101.591z"></path> <path style="fill:#FFFFFF;" d="M65.697,104.459c0.052,0.23,0.078,0.442,0.078,0.636c0,0.216-0.026,0.428-0.078,0.636l-3.369-0.045 l-2.644,0.045c-0.044-0.208-0.067-0.42-0.067-0.636c0-0.193,0.022-0.405,0.067-0.636l2.633,0.044L65.697,104.459z M61.257,102.149 c0-0.364,0.054-0.644,0.162-0.837s0.348-0.29,0.72-0.29h0.602l0.134,0.146v12.06c0,0.268,0.065,0.486,0.195,0.658 c0.13,0.171,0.359,0.256,0.686,0.256h1.696c0.089,0.246,0.134,0.543,0.134,0.893c0,0.06,0,0.119,0,0.179s-0.007,0.115-0.022,0.167 c-0.35,0.045-0.707,0.078-1.071,0.101s-0.762,0.033-1.193,0.033c-0.625,0-1.121-0.157-1.489-0.474s-0.552-0.775-0.552-1.378 V102.149z"></path> <path style="fill:#FFFFFF;" d="M77.924,109.947c0,1.115-0.175,2.104-0.524,2.968c-0.35,0.862-0.87,1.541-1.562,2.036 c-0.691,0.494-1.547,0.741-2.565,0.741c-1.026,0-1.882-0.249-2.566-0.747c-0.685-0.498-1.198-1.181-1.54-2.047 c-0.342-0.867-0.513-1.851-0.513-2.951s0.173-2.082,0.519-2.945c0.346-0.862,0.863-1.543,1.551-2.041s1.538-0.748,2.549-0.748 c1.034,0,1.895,0.25,2.583,0.748c0.688,0.498,1.205,1.181,1.55,2.047C77.751,107.874,77.924,108.854,77.924,109.947z M70.36,109.947c0,0.744,0.089,1.454,0.268,2.131s0.481,1.232,0.909,1.668c0.428,0.435,1.013,0.652,1.757,0.652 c0.736,0,1.316-0.218,1.74-0.652c0.424-0.436,0.726-0.991,0.904-1.668c0.179-0.677,0.268-1.387,0.268-2.131 c0-0.729-0.089-1.434-0.268-2.114c-0.178-0.68-0.479-1.241-0.904-1.685c-0.424-0.442-1.004-0.663-1.74-0.663 c-0.744,0-1.329,0.221-1.757,0.663c-0.428,0.443-0.73,1.005-0.909,1.685C70.449,108.513,70.36,109.218,70.36,109.947z"></path> <path style="fill:#FFFFFF;" d="M87.796,112.457c0-0.825,0.175-1.502,0.524-2.03c0.35-0.527,0.838-0.92,1.467-1.177 c0.628-0.257,1.359-0.385,2.192-0.385c0.461,0,0.959,0.024,1.495,0.072c0.536,0.049,1.042,0.133,1.518,0.251v1.183 c-0.439-0.104-0.922-0.175-1.45-0.212c-0.528-0.037-1.042-0.056-1.54-0.056c-0.781,0-1.398,0.195-1.852,0.586 s-0.681,0.938-0.681,1.646c0,0.543,0.151,1.004,0.452,1.383c0.301,0.38,0.742,0.569,1.322,0.569c0.587,0,1.223-0.205,1.908-0.613 c0.684-0.409,1.261-1.03,1.729-1.863l0.279,1.506c-0.253,0.305-0.582,0.642-0.987,1.01s-0.872,0.688-1.4,0.959 c-0.528,0.271-1.112,0.407-1.751,0.407c-0.729,0-1.332-0.16-1.807-0.479c-0.476-0.319-0.831-0.727-1.065-1.222 C87.913,113.497,87.796,112.985,87.796,112.457z M96.654,114.721c-0.052,0.156-0.149,0.318-0.29,0.485 c-0.142,0.168-0.294,0.292-0.458,0.374c-0.372-0.134-0.664-0.319-0.875-0.558c-0.212-0.238-0.365-0.519-0.458-0.843 c-0.093-0.323-0.144-0.679-0.151-1.065v-5.176c0-0.825-0.182-1.411-0.546-1.757c-0.365-0.346-0.855-0.519-1.473-0.519 c-0.603,0-1.21,0.089-1.824,0.268c-0.614,0.178-1.218,0.397-1.813,0.658c-0.149-0.127-0.281-0.316-0.396-0.569 s-0.173-0.494-0.173-0.725c0.372-0.164,0.797-0.326,1.277-0.485c0.479-0.16,0.985-0.292,1.517-0.396 c0.532-0.104,1.058-0.156,1.579-0.156c0.773,0,1.417,0.142,1.93,0.424c0.513,0.283,0.896,0.699,1.149,1.25 c0.252,0.55,0.379,1.227,0.379,2.03v4.596c0,0.469,0.035,0.882,0.106,1.238C96.206,114.153,96.378,114.462,96.654,114.721z"></path> <path style="fill:#FFFFFF;" d="M104.552,114.141c0.097,0.246,0.145,0.543,0.145,0.893c0,0.06-0.002,0.119-0.005,0.179 c-0.004,0.06-0.013,0.115-0.028,0.167c-0.216,0.03-0.481,0.06-0.797,0.09c-0.316,0.029-0.593,0.044-0.831,0.044 c-0.558,0-1.01-0.157-1.355-0.474s-0.519-0.775-0.519-1.378V99.16l0.134-0.134h0.602c0.372,0,0.612,0.095,0.72,0.284 s0.162,0.471,0.162,0.842v13.053c0,0.312,0.071,0.546,0.212,0.702c0.142,0.156,0.35,0.234,0.625,0.234H104.552z"></path> <path style="fill:#FFFFFF;" d="M108.824,110.461v-1.272h6.091v-0.312c0-0.617-0.088-1.182-0.262-1.695 c-0.175-0.513-0.456-0.924-0.842-1.232s-0.896-0.463-1.528-0.463c-0.885,0-1.558,0.373-2.019,1.121 c-0.461,0.747-0.692,1.73-0.692,2.95v0.524c0,0.804,0.087,1.52,0.262,2.147c0.175,0.629,0.47,1.121,0.887,1.479 c0.417,0.356,0.989,0.535,1.718,0.535c0.595,0,1.162-0.089,1.701-0.268c0.539-0.179,1.05-0.405,1.534-0.681 c0.156,0.142,0.29,0.323,0.402,0.547c0.111,0.223,0.178,0.424,0.201,0.603c-0.513,0.364-1.127,0.663-1.841,0.897 s-1.454,0.352-2.22,0.352c-0.833,0-1.532-0.154-2.097-0.463c-0.565-0.309-1.017-0.732-1.355-1.271 c-0.339-0.539-0.58-1.153-0.725-1.841s-0.218-1.415-0.218-2.181c0-1.101,0.173-2.083,0.519-2.945 c0.346-0.862,0.852-1.541,1.518-2.036c0.666-0.494,1.474-0.742,2.426-0.742c0.952,0,1.748,0.214,2.387,0.642 s1.119,1.003,1.439,1.724c0.32,0.722,0.48,1.521,0.48,2.398c0,0.283-0.008,0.532-0.022,0.748 c-0.015,0.216-0.041,0.461-0.078,0.736H108.824z M113.967,99.316c0.297,0.097,0.569,0.264,0.814,0.502 c0.245,0.237,0.427,0.487,0.546,0.747l-3.648,2.89c-0.164-0.045-0.316-0.134-0.458-0.268c-0.141-0.135-0.245-0.279-0.312-0.436 L113.967,99.316z"></path> <path style="fill:#FFFFFF;" d="M121.932,104.414c0.379,0,0.623,0.099,0.73,0.296s0.162,0.481,0.162,0.854v9.861 c-0.104,0.022-0.227,0.039-0.368,0.05c-0.141,0.012-0.29,0.018-0.446,0.018c-0.164,0-0.316-0.006-0.458-0.018 c-0.142-0.011-0.264-0.027-0.368-0.05V104.57l0.134-0.156H121.932z M127.264,108.285c0-0.885-0.113-1.524-0.34-1.919 c-0.227-0.394-0.616-0.591-1.166-0.591c-0.401,0-0.829,0.113-1.283,0.34c-0.454,0.228-0.88,0.545-1.277,0.954 c-0.398,0.409-0.72,0.885-0.965,1.428v-1.829c0.312-0.491,0.679-0.915,1.099-1.272c0.42-0.356,0.868-0.632,1.344-0.825 s0.952-0.29,1.428-0.29c0.647,0,1.177,0.156,1.59,0.469s0.72,0.729,0.92,1.249s0.301,1.094,0.301,1.718v7.709 c-0.112,0.022-0.238,0.039-0.379,0.05c-0.142,0.012-0.287,0.018-0.435,0.018c-0.164,0-0.316-0.006-0.458-0.018 c-0.141-0.011-0.268-0.027-0.379-0.05V108.285z M133.367,108.262c0-0.885-0.114-1.521-0.34-1.907 c-0.227-0.387-0.616-0.58-1.166-0.58c-0.387,0-0.805,0.105-1.255,0.317c-0.45,0.212-0.879,0.522-1.289,0.932 c-0.409,0.409-0.755,0.903-1.038,1.483v-2.197c0.379-0.401,0.783-0.755,1.21-1.06s0.87-0.543,1.328-0.714s0.924-0.257,1.4-0.257 c0.647,0,1.177,0.156,1.59,0.469s0.718,0.729,0.915,1.249c0.197,0.521,0.295,1.098,0.295,1.729v5.578 c0,0.364,0.017,0.71,0.05,1.037c0.033,0.327,0.102,0.613,0.206,0.859c-0.119,0.111-0.275,0.198-0.468,0.262 s-0.383,0.095-0.569,0.095c-0.312,0-0.536-0.089-0.669-0.268s-0.201-0.45-0.201-0.814V108.262z"></path> <path style="fill:#FFFFFF;" d="M145.581,110.081c0-1.354,0.212-2.456,0.636-3.308c0.424-0.852,0.956-1.477,1.595-1.874 s1.283-0.597,1.93-0.597c0.677,0,1.312,0.14,1.908,0.418c0.595,0.279,1.16,0.627,1.696,1.043l-0.089,1.473 c-0.432-0.327-0.932-0.66-1.5-0.998c-0.569-0.339-1.185-0.508-1.846-0.508c-0.454,0-0.883,0.148-1.289,0.446 s-0.734,0.766-0.987,1.405s-0.379,1.477-0.379,2.511c0,0.989,0.112,1.79,0.335,2.403c0.223,0.614,0.517,1.061,0.881,1.339 c0.364,0.279,0.754,0.419,1.171,0.419c0.453,0,0.911-0.117,1.372-0.352c0.461-0.234,0.879-0.569,1.255-1.004 c0.375-0.436,0.656-0.954,0.842-1.557l0.301,1.562c-0.179,0.446-0.461,0.884-0.848,1.312c-0.387,0.428-0.854,0.78-1.4,1.06 c-0.546,0.278-1.162,0.418-1.846,0.418c-0.811,0-1.495-0.236-2.053-0.708c-0.558-0.473-0.978-1.129-1.26-1.969 C145.723,112.174,145.581,111.197,145.581,110.081z M154.16,112.335c0,0.476,0.035,0.928,0.106,1.355 c0.07,0.428,0.243,0.771,0.519,1.031c-0.06,0.156-0.158,0.318-0.295,0.485c-0.138,0.168-0.292,0.292-0.463,0.374 c-0.587-0.208-0.981-0.563-1.182-1.065c-0.201-0.502-0.301-1.051-0.301-1.646V99.16l0.134-0.134h0.603 c0.372,0,0.611,0.095,0.719,0.284s0.162,0.471,0.162,0.842V112.335z"></path> <path style="fill:#FFFFFF;" d="M159.66,110.461v-1.272h6.091v-0.312c0-0.617-0.088-1.182-0.262-1.695 c-0.175-0.513-0.456-0.924-0.842-1.232s-0.896-0.463-1.528-0.463c-0.885,0-1.558,0.373-2.019,1.121 c-0.461,0.747-0.692,1.73-0.692,2.95v0.524c0,0.804,0.087,1.52,0.262,2.147c0.175,0.629,0.47,1.121,0.887,1.479 c0.417,0.356,0.989,0.535,1.718,0.535c0.595,0,1.162-0.089,1.701-0.268c0.539-0.179,1.05-0.405,1.534-0.681 c0.156,0.142,0.29,0.323,0.402,0.547c0.111,0.223,0.178,0.424,0.201,0.603c-0.513,0.364-1.127,0.663-1.841,0.897 s-1.454,0.352-2.22,0.352c-0.833,0-1.532-0.154-2.097-0.463c-0.565-0.309-1.017-0.732-1.355-1.271 c-0.339-0.539-0.58-1.153-0.725-1.841s-0.218-1.415-0.218-2.181c0-1.101,0.173-2.083,0.519-2.945 c0.346-0.862,0.852-1.541,1.518-2.036c0.666-0.494,1.474-0.742,2.426-0.742c0.952,0,1.748,0.214,2.387,0.642 s1.119,1.003,1.439,1.724c0.32,0.722,0.48,1.521,0.48,2.398c0,0.283-0.008,0.532-0.022,0.748 c-0.015,0.216-0.041,0.461-0.078,0.736H159.66z"></path> <path style="fill:#FFFFFF;" d="M177.118,114.577c0.015-0.193,0.085-0.409,0.212-0.647c0.126-0.237,0.271-0.424,0.435-0.558 c0.454,0.261,0.952,0.496,1.495,0.708c0.543,0.213,1.097,0.318,1.662,0.318c0.714,0,1.285-0.162,1.712-0.485 s0.649-0.738,0.664-1.244c0-0.371-0.142-0.717-0.424-1.037c-0.283-0.319-0.681-0.576-1.194-0.77l-1.328-0.491 c-0.506-0.186-0.974-0.414-1.405-0.686c-0.432-0.271-0.779-0.604-1.043-0.999c-0.264-0.394-0.396-0.862-0.396-1.405 c0-0.64,0.169-1.188,0.508-1.646s0.79-0.809,1.355-1.055c0.565-0.245,1.189-0.368,1.874-0.368c0.55,0,1.14,0.069,1.768,0.207 s1.166,0.311,1.612,0.519c0,0.148-0.021,0.301-0.062,0.457c-0.041,0.156-0.099,0.307-0.173,0.452 c-0.075,0.145-0.167,0.273-0.279,0.385c-0.35-0.163-0.781-0.317-1.294-0.463c-0.513-0.145-1.052-0.218-1.617-0.218 c-0.588,0-1.065,0.146-1.434,0.436s-0.552,0.685-0.552,1.183c0,0.379,0.139,0.693,0.418,0.942 c0.279,0.249,0.693,0.478,1.244,0.686l1.372,0.514c0.833,0.305,1.502,0.718,2.008,1.238c0.505,0.521,0.758,1.187,0.758,1.997 c0,0.989-0.389,1.761-1.166,2.314c-0.777,0.555-1.765,0.831-2.962,0.831c-0.781,0-1.489-0.113-2.125-0.34 C178.128,115.126,177.579,114.867,177.118,114.577z"></path> <path style="fill:#FFFFFF;" d="M189.489,110.461v-1.272h6.091v-0.312c0-0.617-0.088-1.182-0.263-1.695 c-0.175-0.513-0.455-0.924-0.842-1.232s-0.896-0.463-1.528-0.463c-0.885,0-1.558,0.373-2.019,1.121 c-0.461,0.747-0.692,1.73-0.692,2.95v0.524c0,0.804,0.087,1.52,0.262,2.147c0.175,0.629,0.47,1.121,0.887,1.479 c0.417,0.356,0.989,0.535,1.718,0.535c0.595,0,1.162-0.089,1.701-0.268c0.539-0.179,1.05-0.405,1.533-0.681 c0.156,0.142,0.29,0.323,0.402,0.547c0.111,0.223,0.178,0.424,0.2,0.603c-0.513,0.364-1.127,0.663-1.84,0.897 c-0.714,0.234-1.454,0.352-2.22,0.352c-0.833,0-1.532-0.154-2.097-0.463c-0.565-0.309-1.017-0.732-1.355-1.271 c-0.339-0.539-0.58-1.153-0.725-1.841s-0.218-1.415-0.218-2.181c0-1.101,0.173-2.083,0.519-2.945 c0.346-0.862,0.852-1.541,1.518-2.036c0.666-0.494,1.474-0.742,2.426-0.742c0.952,0,1.748,0.214,2.387,0.642 c0.64,0.428,1.119,1.003,1.439,1.724c0.319,0.722,0.479,1.521,0.479,2.398c0,0.283-0.008,0.532-0.022,0.748 s-0.041,0.461-0.078,0.736H189.489z"></path> <path style="fill:#FFFFFF;" d="M201.012,109.969c0-1.339,0.212-2.432,0.637-3.28c0.424-0.848,0.953-1.472,1.589-1.874 c0.637-0.401,1.277-0.603,1.925-0.603c0.603,0,1.133,0.086,1.59,0.257s0.861,0.393,1.211,0.664s0.664,0.56,0.947,0.864 l-0.178,1.484c-0.373-0.499-0.863-0.93-1.473-1.295c-0.609-0.364-1.234-0.546-1.875-0.546c-0.482,0-0.93,0.148-1.338,0.446 c-0.409,0.297-0.738,0.764-0.987,1.399c-0.25,0.636-0.374,1.467-0.374,2.493c0,1.488,0.234,2.557,0.703,3.208 c0.468,0.65,1.022,0.976,1.662,0.976c0.677,0,1.322-0.218,1.936-0.652c0.613-0.436,1.08-0.954,1.4-1.557l0.268,1.417 c-0.186,0.29-0.461,0.61-0.826,0.96c-0.363,0.35-0.801,0.648-1.311,0.897s-1.076,0.374-1.701,0.374 c-0.841,0-1.542-0.232-2.103-0.697c-0.562-0.465-0.986-1.121-1.272-1.969C201.156,112.089,201.012,111.1,201.012,109.969z M210.239,105.183c-0.275,0.261-0.449,0.604-0.52,1.032s-0.105,0.88-0.105,1.355v7.006c0,0.751-0.035,1.397-0.105,1.94 s-0.182,1.01-0.33,1.4s-0.342,0.73-0.58,1.021c-0.305,0.38-0.746,0.707-1.326,0.982c-0.58,0.274-1.275,0.412-2.087,0.412 c-0.685,0-1.352-0.076-2.003-0.229c-0.65-0.152-1.21-0.329-1.679-0.529c0.008-0.224,0.054-0.458,0.14-0.703 c0.085-0.245,0.195-0.442,0.329-0.592c0.453,0.224,0.974,0.398,1.562,0.524c0.588,0.127,1.082,0.189,1.484,0.189 c0.877,0,1.529-0.165,1.957-0.496s0.711-0.768,0.848-1.311c0.139-0.543,0.207-1.131,0.207-1.763v-8.389 c0-0.596,0.096-1.144,0.285-1.646s0.578-0.857,1.166-1.065c0.17,0.082,0.324,0.206,0.463,0.373 C210.081,104.866,210.178,105.027,210.239,105.183z"></path> <path style="fill:#FFFFFF;" d="M214.735,106.59c0-0.357-0.017-0.699-0.051-1.026c-0.033-0.327-0.102-0.614-0.206-0.859 c0.119-0.111,0.275-0.199,0.469-0.262c0.193-0.063,0.383-0.095,0.569-0.095c0.312,0,0.535,0.089,0.669,0.268 c0.134,0.178,0.201,0.45,0.201,0.814v6.191c0,0.877,0.111,1.515,0.334,1.913c0.224,0.397,0.654,0.597,1.294,0.597 c0.454,0,0.934-0.106,1.439-0.318s0.977-0.494,1.411-0.848c0.436-0.353,0.775-0.745,1.021-1.177v1.74 c-0.483,0.61-1.113,1.112-1.891,1.506c-0.777,0.395-1.575,0.592-2.393,0.592c-0.699,0-1.259-0.158-1.68-0.475 c-0.42-0.315-0.723-0.738-0.909-1.266c-0.186-0.528-0.278-1.112-0.278-1.752V106.59z M223.09,112.335 c0,0.476,0.035,0.928,0.106,1.355c0.07,0.428,0.243,0.771,0.519,1.031c-0.06,0.156-0.158,0.318-0.296,0.485 c-0.138,0.168-0.292,0.292-0.463,0.374c-0.595-0.208-0.997-0.563-1.205-1.065s-0.312-1.051-0.312-1.646v-8.389 c0.112-0.022,0.236-0.039,0.374-0.051c0.138-0.011,0.284-0.017,0.44-0.017c0.164,0,0.316,0.006,0.458,0.017 c0.141,0.012,0.268,0.028,0.379,0.051V112.335z"></path> <path style="fill:#FFFFFF;" d="M227.776,105.239c0.052-0.148,0.145-0.315,0.278-0.502c0.134-0.186,0.279-0.323,0.436-0.412 c0.587,0.2,1.019,0.567,1.294,1.099s0.424,1.177,0.446,1.936v8.065c-0.104,0.022-0.228,0.039-0.368,0.05 c-0.142,0.012-0.29,0.018-0.446,0.018c-0.164,0-0.316-0.006-0.457-0.018c-0.142-0.011-0.265-0.027-0.368-0.05v-7.898 c0-0.558-0.086-1.028-0.257-1.411S227.976,105.44,227.776,105.239z M234.112,104.414c0,0.261-0.027,0.534-0.084,0.82 c-0.056,0.286-0.157,0.537-0.307,0.753c-0.126-0.015-0.255-0.024-0.385-0.028s-0.258-0.005-0.385-0.005 c-0.498,0-0.926,0.105-1.283,0.317c-0.356,0.212-0.654,0.479-0.892,0.798c-0.238,0.319-0.43,0.654-0.575,1.004 c-0.145,0.35-0.251,0.666-0.317,0.948l-0.302-0.368c0-0.476,0.065-0.967,0.195-1.473s0.335-0.974,0.613-1.405 c0.279-0.432,0.64-0.781,1.083-1.049c0.442-0.268,0.979-0.401,1.611-0.401c0.119,0,0.266,0.007,0.44,0.022 C233.701,104.362,233.896,104.384,234.112,104.414z"></path> <path style="fill:#FFFFFF;" d="M245.569,109.947c0,1.115-0.175,2.104-0.524,2.968c-0.35,0.862-0.87,1.541-1.562,2.036 c-0.692,0.494-1.547,0.741-2.566,0.741c-1.026,0-1.881-0.249-2.565-0.747s-1.197-1.181-1.539-2.047 c-0.343-0.867-0.514-1.851-0.514-2.951s0.173-2.082,0.519-2.945c0.346-0.862,0.863-1.543,1.551-2.041s1.538-0.748,2.549-0.748 c1.034,0,1.895,0.25,2.583,0.748c0.688,0.498,1.205,1.181,1.551,2.047S245.569,108.854,245.569,109.947z M238.005,109.947 c0,0.744,0.089,1.454,0.268,2.131s0.481,1.232,0.909,1.668c0.428,0.435,1.014,0.652,1.757,0.652c0.736,0,1.316-0.218,1.74-0.652 c0.424-0.436,0.726-0.991,0.904-1.668c0.178-0.677,0.268-1.387,0.268-2.131c0-0.729-0.09-1.434-0.268-2.114 c-0.179-0.68-0.48-1.241-0.904-1.685c-0.424-0.442-1.004-0.663-1.74-0.663c-0.743,0-1.329,0.221-1.757,0.663 c-0.428,0.443-0.73,1.005-0.909,1.685C238.094,108.513,238.005,109.218,238.005,109.947z"></path> <path style="fill:#FFFFFF;" d="M256.467,110.461v-1.272h6.091v-0.312c0-0.617-0.087-1.182-0.262-1.695 c-0.175-0.513-0.456-0.924-0.843-1.232s-0.896-0.463-1.528-0.463c-0.885,0-1.558,0.373-2.019,1.121 c-0.462,0.747-0.691,1.73-0.691,2.95v0.524c0,0.804,0.087,1.52,0.262,2.147c0.175,0.629,0.471,1.121,0.887,1.479 c0.417,0.356,0.989,0.535,1.718,0.535c0.596,0,1.162-0.089,1.701-0.268s1.051-0.405,1.534-0.681 c0.156,0.142,0.29,0.323,0.401,0.547c0.112,0.223,0.179,0.424,0.201,0.603c-0.513,0.364-1.127,0.663-1.841,0.897 s-1.454,0.352-2.22,0.352c-0.833,0-1.532-0.154-2.098-0.463s-1.017-0.732-1.355-1.271c-0.338-0.539-0.58-1.153-0.725-1.841 c-0.146-0.688-0.218-1.415-0.218-2.181c0-1.101,0.173-2.083,0.519-2.945c0.346-0.862,0.852-1.541,1.518-2.036 c0.665-0.494,1.474-0.742,2.426-0.742s1.748,0.214,2.388,0.642s1.119,1.003,1.439,1.724c0.319,0.722,0.479,1.521,0.479,2.398 c0,0.283-0.008,0.532-0.022,0.748s-0.041,0.461-0.078,0.736H256.467z"></path> <path style="fill:#FFFFFF;" d="M274.461,105.239c0.052-0.148,0.145-0.315,0.278-0.502c0.134-0.186,0.279-0.323,0.436-0.412 c0.587,0.2,1.019,0.567,1.294,1.099s0.424,1.177,0.446,1.936v8.065c-0.104,0.022-0.228,0.039-0.368,0.05 c-0.142,0.012-0.29,0.018-0.446,0.018c-0.164,0-0.316-0.006-0.457-0.018c-0.142-0.011-0.265-0.027-0.368-0.05v-7.898 c0-0.558-0.086-1.028-0.257-1.411S274.661,105.44,274.461,105.239z M280.796,104.414c0,0.261-0.027,0.534-0.084,0.82 c-0.056,0.286-0.157,0.537-0.307,0.753c-0.126-0.015-0.255-0.024-0.385-0.028s-0.258-0.005-0.385-0.005 c-0.498,0-0.926,0.105-1.283,0.317c-0.356,0.212-0.654,0.479-0.892,0.798c-0.238,0.319-0.43,0.654-0.575,1.004 c-0.145,0.35-0.251,0.666-0.317,0.948l-0.302-0.368c0-0.476,0.065-0.967,0.195-1.473s0.335-0.974,0.613-1.405 c0.279-0.432,0.64-0.781,1.083-1.049c0.442-0.268,0.979-0.401,1.611-0.401c0.119,0,0.266,0.007,0.44,0.022 C280.385,104.362,280.581,104.384,280.796,104.414z"></path> <path style="fill:#FFFFFF;" d="M283.987,110.461v-1.272h6.091v-0.312c0-0.617-0.087-1.182-0.262-1.695 c-0.175-0.513-0.456-0.924-0.843-1.232s-0.896-0.463-1.528-0.463c-0.885,0-1.558,0.373-2.019,1.121 c-0.462,0.747-0.691,1.73-0.691,2.95v0.524c0,0.804,0.087,1.52,0.262,2.147c0.175,0.629,0.471,1.121,0.887,1.479 c0.417,0.356,0.989,0.535,1.718,0.535c0.596,0,1.162-0.089,1.701-0.268s1.051-0.405,1.534-0.681 c0.156,0.142,0.29,0.323,0.401,0.547c0.112,0.223,0.179,0.424,0.201,0.603c-0.513,0.364-1.127,0.663-1.841,0.897 s-1.454,0.352-2.22,0.352c-0.833,0-1.532-0.154-2.098-0.463s-1.017-0.732-1.355-1.271c-0.338-0.539-0.58-1.153-0.725-1.841 c-0.146-0.688-0.218-1.415-0.218-2.181c0-1.101,0.173-2.083,0.519-2.945s0.852-1.541,1.518-2.036 c0.665-0.494,1.474-0.742,2.426-0.742s1.748,0.214,2.388,0.642s1.119,1.003,1.439,1.724c0.319,0.722,0.479,1.521,0.479,2.398 c0,0.283-0.008,0.532-0.022,0.748s-0.041,0.461-0.078,0.736H283.987z"></path> <path style="fill:#FFFFFF;" d="M295.198,114.577c0.016-0.193,0.086-0.409,0.212-0.647c0.127-0.237,0.271-0.424,0.436-0.558 c0.453,0.261,0.952,0.496,1.495,0.708c0.542,0.213,1.097,0.318,1.662,0.318c0.714,0,1.284-0.162,1.712-0.485 s0.649-0.738,0.664-1.244c0-0.371-0.142-0.717-0.424-1.037c-0.283-0.319-0.681-0.576-1.193-0.77l-1.328-0.491 c-0.506-0.186-0.975-0.414-1.405-0.686c-0.432-0.271-0.779-0.604-1.043-0.999c-0.265-0.394-0.396-0.862-0.396-1.405 c0-0.64,0.169-1.188,0.508-1.646c0.338-0.457,0.79-0.809,1.355-1.055c0.565-0.245,1.189-0.368,1.874-0.368 c0.55,0,1.14,0.069,1.769,0.207c0.628,0.138,1.165,0.311,1.611,0.519c0,0.148-0.021,0.301-0.062,0.457 c-0.04,0.156-0.099,0.307-0.173,0.452c-0.074,0.145-0.167,0.273-0.278,0.385c-0.35-0.163-0.781-0.317-1.294-0.463 c-0.514-0.145-1.053-0.218-1.618-0.218c-0.587,0-1.065,0.146-1.434,0.436s-0.552,0.685-0.552,1.183 c0,0.379,0.14,0.693,0.418,0.942c0.279,0.249,0.693,0.478,1.244,0.686l1.372,0.514c0.833,0.305,1.502,0.718,2.008,1.238 s0.759,1.187,0.759,1.997c0,0.989-0.389,1.761-1.166,2.314c-0.777,0.555-1.764,0.831-2.962,0.831c-0.78,0-1.489-0.113-2.125-0.34 S295.659,114.867,295.198,114.577z"></path> <path style="fill:#FFFFFF;" d="M306.231,114.577c0.016-0.193,0.086-0.409,0.212-0.647c0.127-0.237,0.271-0.424,0.436-0.558 c0.453,0.261,0.952,0.496,1.495,0.708c0.542,0.213,1.097,0.318,1.662,0.318c0.714,0,1.284-0.162,1.712-0.485 s0.649-0.738,0.664-1.244c0-0.371-0.142-0.717-0.424-1.037c-0.283-0.319-0.681-0.576-1.193-0.77l-1.328-0.491 c-0.506-0.186-0.975-0.414-1.405-0.686c-0.432-0.271-0.779-0.604-1.043-0.999c-0.265-0.394-0.396-0.862-0.396-1.405 c0-0.64,0.169-1.188,0.508-1.646c0.338-0.457,0.79-0.809,1.355-1.055c0.565-0.245,1.189-0.368,1.874-0.368 c0.55,0,1.14,0.069,1.769,0.207c0.628,0.138,1.165,0.311,1.611,0.519c0,0.148-0.021,0.301-0.062,0.457 c-0.04,0.156-0.099,0.307-0.173,0.452c-0.074,0.145-0.167,0.273-0.278,0.385c-0.35-0.163-0.781-0.317-1.294-0.463 c-0.514-0.145-1.053-0.218-1.618-0.218c-0.587,0-1.065,0.146-1.434,0.436s-0.552,0.685-0.552,1.183 c0,0.379,0.14,0.693,0.418,0.942c0.279,0.249,0.693,0.478,1.244,0.686l1.372,0.514c0.833,0.305,1.502,0.718,2.008,1.238 s0.759,1.187,0.759,1.997c0,0.989-0.389,1.761-1.166,2.314c-0.777,0.555-1.764,0.831-2.962,0.831c-0.78,0-1.489-0.113-2.125-0.34 S306.692,114.867,306.231,114.577z"></path> <path style="fill:#FFFFFF;" d="M318.603,110.461v-1.272h6.091v-0.312c0-0.617-0.087-1.182-0.262-1.695 c-0.175-0.513-0.456-0.924-0.843-1.232s-0.896-0.463-1.528-0.463c-0.885,0-1.558,0.373-2.019,1.121 c-0.462,0.747-0.691,1.73-0.691,2.95v0.524c0,0.804,0.087,1.52,0.262,2.147c0.175,0.629,0.471,1.121,0.887,1.479 c0.417,0.356,0.989,0.535,1.718,0.535c0.596,0,1.162-0.089,1.701-0.268s1.051-0.405,1.534-0.681 c0.156,0.142,0.29,0.323,0.401,0.547c0.112,0.223,0.179,0.424,0.201,0.603c-0.513,0.364-1.127,0.663-1.841,0.897 s-1.454,0.352-2.22,0.352c-0.833,0-1.532-0.154-2.098-0.463s-1.017-0.732-1.355-1.271c-0.338-0.539-0.58-1.153-0.725-1.841 c-0.146-0.688-0.218-1.415-0.218-2.181c0-1.101,0.173-2.083,0.519-2.945s0.852-1.541,1.518-2.036 c0.665-0.494,1.474-0.742,2.426-0.742s1.748,0.214,2.388,0.642s1.119,1.003,1.439,1.724c0.319,0.722,0.479,1.521,0.479,2.398 c0,0.283-0.008,0.532-0.022,0.748s-0.041,0.461-0.078,0.736H318.603z"></path> <path style="fill:#FFFFFF;" d="M330.127,109.969c0-1.339,0.212-2.432,0.636-3.28c0.424-0.848,0.954-1.472,1.59-1.874 c0.636-0.401,1.277-0.603,1.925-0.603c0.603,0,1.132,0.086,1.59,0.257c0.457,0.171,0.86,0.393,1.21,0.664s0.665,0.56,0.948,0.864 l-0.179,1.484c-0.372-0.499-0.862-0.93-1.473-1.295c-0.609-0.364-1.234-0.546-1.874-0.546c-0.483,0-0.93,0.148-1.339,0.446 c-0.409,0.297-0.738,0.764-0.987,1.399s-0.373,1.467-0.373,2.493c0,1.488,0.234,2.557,0.702,3.208 c0.469,0.65,1.022,0.976,1.662,0.976c0.677,0,1.322-0.218,1.936-0.652c0.614-0.436,1.081-0.954,1.4-1.557l0.268,1.417 c-0.186,0.29-0.461,0.61-0.825,0.96s-0.802,0.648-1.311,0.897c-0.51,0.249-1.077,0.374-1.701,0.374 c-0.841,0-1.542-0.232-2.104-0.697s-0.985-1.121-1.271-1.969C330.27,112.089,330.127,111.1,330.127,109.969z M339.352,105.183 c-0.274,0.261-0.448,0.604-0.519,1.032s-0.105,0.88-0.105,1.355v7.006c0,0.751-0.036,1.397-0.106,1.94s-0.181,1.01-0.329,1.4 s-0.342,0.73-0.58,1.021c-0.305,0.38-0.747,0.707-1.327,0.982c-0.58,0.274-1.275,0.412-2.086,0.412 c-0.685,0-1.353-0.076-2.003-0.229s-1.21-0.329-1.679-0.529c0.007-0.224,0.054-0.458,0.14-0.703 c0.085-0.245,0.195-0.442,0.329-0.592c0.453,0.224,0.974,0.398,1.562,0.524c0.587,0.127,1.082,0.189,1.483,0.189 c0.878,0,1.53-0.165,1.958-0.496s0.71-0.768,0.848-1.311s0.207-1.131,0.207-1.763v-8.389c0-0.596,0.095-1.144,0.284-1.646 s0.578-0.857,1.166-1.065c0.171,0.082,0.325,0.206,0.463,0.373C339.194,104.866,339.293,105.027,339.352,105.183z"></path> <path style="fill:#FFFFFF;" d="M343.848,106.59c0-0.357-0.017-0.699-0.051-1.026c-0.033-0.327-0.102-0.614-0.206-0.859 c0.119-0.111,0.275-0.199,0.469-0.262c0.193-0.063,0.383-0.095,0.569-0.095c0.312,0,0.535,0.089,0.669,0.268 c0.134,0.178,0.201,0.45,0.201,0.814v6.191c0,0.877,0.111,1.515,0.334,1.913c0.224,0.397,0.654,0.597,1.294,0.597 c0.454,0,0.934-0.106,1.439-0.318s0.977-0.494,1.411-0.848c0.436-0.353,0.775-0.745,1.021-1.177v1.74 c-0.483,0.61-1.113,1.112-1.891,1.506c-0.777,0.395-1.575,0.592-2.393,0.592c-0.699,0-1.259-0.158-1.68-0.475 c-0.42-0.315-0.723-0.738-0.909-1.266c-0.186-0.528-0.278-1.112-0.278-1.752V106.59z M352.204,112.335 c0,0.476,0.035,0.928,0.106,1.355c0.07,0.428,0.243,0.771,0.519,1.031c-0.06,0.156-0.158,0.318-0.296,0.485 c-0.138,0.168-0.292,0.292-0.463,0.374c-0.595-0.208-0.997-0.563-1.205-1.065s-0.312-1.051-0.312-1.646v-8.389 c0.112-0.022,0.236-0.039,0.374-0.051c0.138-0.011,0.284-0.017,0.44-0.017c0.164,0,0.316,0.006,0.458,0.017 c0.141,0.012,0.268,0.028,0.379,0.051V112.335z"></path> <path style="fill:#FFFFFF;" d="M356.889,105.239c0.052-0.148,0.145-0.315,0.278-0.502c0.134-0.186,0.279-0.323,0.436-0.412 c0.587,0.2,1.019,0.567,1.294,1.099s0.424,1.177,0.446,1.936v8.065c-0.104,0.022-0.228,0.039-0.368,0.05 c-0.142,0.012-0.29,0.018-0.446,0.018c-0.164,0-0.316-0.006-0.457-0.018c-0.142-0.011-0.265-0.027-0.368-0.05v-7.898 c0-0.558-0.086-1.028-0.257-1.411S357.089,105.44,356.889,105.239z M363.225,104.414c0,0.261-0.027,0.534-0.084,0.82 c-0.056,0.286-0.157,0.537-0.307,0.753c-0.126-0.015-0.255-0.024-0.385-0.028s-0.258-0.005-0.385-0.005 c-0.498,0-0.926,0.105-1.283,0.317c-0.356,0.212-0.654,0.479-0.892,0.798c-0.238,0.319-0.43,0.654-0.575,1.004 c-0.145,0.35-0.251,0.666-0.317,0.948l-0.302-0.368c0-0.476,0.065-0.967,0.195-1.473s0.335-0.974,0.613-1.405 c0.279-0.432,0.64-0.781,1.083-1.049c0.442-0.268,0.979-0.401,1.611-0.401c0.119,0,0.266,0.007,0.44,0.022 C362.814,104.362,363.009,104.384,363.225,104.414z"></path> <path style="fill:#FFFFFF;" d="M374.682,109.947c0,1.115-0.175,2.104-0.524,2.968c-0.35,0.862-0.87,1.541-1.562,2.036 c-0.692,0.494-1.547,0.741-2.566,0.741c-1.026,0-1.881-0.249-2.565-0.747s-1.197-1.181-1.539-2.047 c-0.343-0.867-0.514-1.851-0.514-2.951s0.173-2.082,0.519-2.945c0.346-0.862,0.863-1.543,1.551-2.041s1.538-0.748,2.549-0.748 c1.034,0,1.895,0.25,2.583,0.748c0.688,0.498,1.205,1.181,1.551,2.047S374.682,108.854,374.682,109.947z M367.119,109.947 c0,0.744,0.089,1.454,0.268,2.131s0.481,1.232,0.909,1.668c0.428,0.435,1.014,0.652,1.757,0.652c0.736,0,1.316-0.218,1.74-0.652 c0.424-0.436,0.726-0.991,0.904-1.668c0.178-0.677,0.268-1.387,0.268-2.131c0-0.729-0.09-1.434-0.268-2.114 c-0.179-0.68-0.48-1.241-0.904-1.685c-0.424-0.442-1.004-0.663-1.74-0.663c-0.743,0-1.329,0.221-1.757,0.663 c-0.428,0.443-0.73,1.005-0.909,1.685C367.208,108.513,367.119,109.218,367.119,109.947z"></path> </g> </g> </svg> 